<?xml version="1.0" encoding="UTF-8"?>
<svg xmlns="http://www.w3.org/2000/svg" xmlns:xlink="http://www.w3.org/1999/xlink" viewBox="0 0 144 144" width="144px" height="144px">
<g id="surface1694068">
<path style=" stroke:none;fill-rule:nonzero;fill:rgb(100%,0%,98.039216%);fill-opacity:1;" d="M 72 144 C 32.234375 144 0 111.765625 0 72 C 0 32.234375 32.234375 0 72 0 C 111.765625 0 144 32.234375 144 72 C 144 111.765625 111.765625 144 72 144 Z M 72 144 "/>
<path style=" stroke:none;fill-rule:nonzero;fill:rgb(0%,100%,94.117647%);fill-opacity:1;" 
d="M 116.316406 56.15625 C 114.300781 56.15625 112.667969 57.800781 112.667969 59.828125 C 
112.667969 65.492188 110.007812 70.753906 105.597656 74.3125 L 105.597656 32.242188 C 105.597656 
29.511719 103.089844 27.300781 99.996094 27.300781 L 43.996094 27.300781 C 40.902344 27.300781 
38.394531 29.511719 38.394531 32.242188 L 38.394531 77.496094 C 29.757812 82.613281 23.996094 92.714844
 23.996094 102.898438 C 23.996094 104.890625 25.609375 106.5 27.597656 106.5 C 29.582031 106.5 31.195312 
 104.890625 31.195312 102.898438 C 31.195312 96.863281 34.019531 90.710938 38.394531 86.519531 L 38.394531 
 106.359375 C 38.394531 109.089844 40.902344 111.300781 43.996094 111.300781 L 52.796875 111.300781 L 52.796875 122.101562 C 52.796875 124.089844 54.410156 125.699219 56.394531 125.699219 C 58.382812 125.699219 59.996094 124.089844 59.996094 122.101562 L 59.996094 111.300781 L 83.996094 111.300781 L 83.996094 122.101562 C 83.996094 124.089844 85.609375 125.699219 87.597656 125.699219 C 89.582031 125.699219 91.195312 124.089844 91.195312 122.101562 L 91.195312 111.300781 L 99.996094 111.300781 C 103.089844 111.300781 105.597656 109.089844 105.597656 106.359375 L 105.597656 83.019531 C 114.390625 78.445312 119.964844 69.578125 119.964844 59.828125 C 119.964844 57.800781 118.328125 56.15625 116.316406 56.15625 Z M 56.394531 44.101562 C 58.382812 44.101562 59.996094 45.710938 59.996094 47.699219 C 59.996094 49.6875 58.382812 51.300781 56.394531 51.300781 C 54.410156 51.300781 52.796875 49.6875 52.796875 47.699219 C 52.796875 45.710938 54.410156 44.101562 56.394531 44.101562 Z M 64.796875 90.898438 C 64.796875 91.5625 64.257812 92.101562 63.597656 92.101562 L 59.996094 92.101562 L 59.996094 95.699219 C 59.996094 96.363281 59.457031 96.898438 58.796875 96.898438 L 56.394531 96.898438 C 55.734375 96.898438 55.195312 96.363281 55.195312 95.699219 L 55.195312 92.101562 L 51.597656 92.101562 C 50.933594 92.101562 50.394531 91.5625 50.394531 90.898438 L 50.394531 88.5 C 50.394531 87.835938 50.933594 87.300781 51.597656 87.300781 L 55.195312 87.300781 L 55.195312 83.699219 C 55.195312 83.039062 55.734375 82.5 56.394531 82.5 L 58.796875 82.5 C 59.457031 82.5 59.996094 83.039062 59.996094 83.699219 L 59.996094 87.300781 L 63.597656 87.300781 C 64.257812 87.300781 64.796875 87.835938 64.796875 88.5 Z M 79.957031 63.640625 C 77.777344 64.367188 75.484375 64.730469 73.195312 64.730469 C 70.90625 64.730469 68.613281 64.367188 66.433594 63.640625 L 64.859375 63.113281 C 62.972656 62.488281 61.953125 60.445312 62.582031 58.5625 C 63.210938 56.675781 65.246094 55.652344 67.136719 56.289062 L 68.714844 56.8125 C 71.605469 57.773438 74.789062 57.773438 77.679688 56.8125 L 79.257812 56.289062 C 81.144531 55.65625 83.179688 56.675781 83.808594 58.5625 C 84.441406 60.449219 83.421875 62.488281 81.535156 63.113281 Z M 86.394531 96.898438 C 83.742188 96.898438 81.597656 94.753906 81.597656 92.101562 C 81.597656 89.449219 83.742188 87.300781 86.394531 87.300781 C 89.046875 87.300781 91.195312 89.449219 91.195312 92.101562 C 91.195312 94.753906 89.046875 96.898438 86.394531 96.898438 Z M 87.597656 51.300781 C 85.609375 51.300781 83.996094 49.6875 83.996094 47.699219 C 83.996094 45.710938 85.609375 44.101562 87.597656 44.101562 C 89.582031 44.101562 91.195312 45.710938 91.195312 47.699219 C 91.195312 49.6875 89.582031 51.300781 87.597656 51.300781 Z M 87.597656 51.300781 "/>
</g>
</svg>
