<?xml version="1.0" encoding="UTF-8"?>
<svg xmlns="http://www.w3.org/2000/svg" xmlns:xlink="http://www.w3.org/1999/xlink" viewBox="0 0 500 500" width="500px" height="500px">
<g id="surface1689918">
<path style=" stroke:none;fill-rule:nonzero;fill:rgb(100%,0%,92.156863%);fill-opacity:1;" 
d="M 250 500 C 111.929688 500 0 388.070312 0 250 C 0 111.929688 111.929688 0 250 0 C 388.070312 0 500 111.929688 500 250 C 500 388.070312 388.070312 500 250 500 Z M 250 500 "/>
<path style=" stroke:none;fill-rule:nonzero;fill:rgb(0%,96.862745%,100%);fill-opacity:1;" 
d="M 162 74.019531 C 148.839844 74.019531 138 84.863281 138 98.019531 L 138 218.222656 C 
102.441406 220.324219 74 249.960938 74 286.019531 C 73.9375 290.347656 76.210938 294.375 
79.949219 296.554688 C 83.6875 298.738281 88.3125 298.738281 92.050781 296.554688 C 95.789062 
294.375 98.0625 290.347656 98 286.019531 C 98 262.933594 115.464844 244.210938 138 242.207031 L 
138 346.019531 C 138 359.179688 148.839844 370.019531 162 370.019531 L 194 370.019531 L 194 414.019531 
C 193.9375 418.347656 196.210938 422.375 199.949219 424.554688 C 203.6875 426.738281 208.3125 426.738281 
212.050781 424.554688 C 215.789062 422.375 218.0625 418.347656 218 414.019531 L 218 370.019531 L 282 370.019531 L 
282 414.019531 C 281.9375 418.347656 284.210938 422.375 287.949219 424.554688 C 291.6875 426.738281 296.3125 426.738281 
300.050781 424.554688 C 303.789062 422.375 306.0625 418.347656 306 414.019531 L 306 370.019531 L 338 370.019531 C 351.160156 
370.019531 362 359.179688 362 346.019531 L 362 241.816406 C 397.558594 239.71875 426 210.082031 426 174.019531 C 426.046875 
170.777344 424.777344 167.652344 422.480469 165.359375 C 420.183594 163.0625 417.058594 161.796875 413.8125 161.847656 C 407.191406 
161.953125 401.90625 167.398438 402 174.019531 C 402 197.109375 384.535156 215.832031 362 217.832031 L 362 98.019531 C 362 84.863281 
351.160156 74.019531 338 74.019531 Z M 162 90.019531 L 338 90.019531 C 342.519531 90.019531 346 93.5 346 98.019531 L 346 228.050781 C 345.789062 229.339844 345.789062 230.65625 346 231.941406 L 346 346.019531 C 346 350.542969 342.519531 354.019531 338 354.019531 L 162 354.019531 C 157.480469 354.019531 154 350.542969 154 346.019531 L 154 231.988281 C 154.210938 230.703125 154.210938 229.386719 154 228.097656 L 154 98.019531 C 154 93.5 157.480469 90.019531 162 90.019531 Z M 186 106.019531 C 177.253906 106.019531 170 113.277344 170 122.019531 L 170 194.019531 C 170 202.765625 177.253906 210.019531 186 210.019531 L 314 210.019531 C 322.746094 210.019531 330 202.765625 330 194.019531 L 330 122.019531 C 330 113.277344 322.746094 106.019531 314 106.019531 Z M 186 122.019531 L 314 122.019531 L 314 194.019531 L 186 194.019531 Z M 210 138.019531 C 205.582031 138.019531 202 141.601562 202 146.019531 C 202 150.441406 205.582031 154.019531 210 154.019531 C 214.417969 154.019531 218 150.441406 218 146.019531 C 218 141.601562 214.417969 138.019531 210 138.019531 Z M 290 138.019531 C 285.582031 138.019531 282 141.601562 282 146.019531 C 282 150.441406 285.582031 154.019531 290 154.019531 C 294.417969 154.019531 298 150.441406 298 146.019531 C 298 141.601562 294.417969 138.019531 290 138.019531 Z M 234 162.019531 C 234 170.863281 241.160156 178.019531 250 178.019531 C 258.839844 178.019531 266 170.863281 266 162.019531 Z M 170 226.019531 L 170 242.019531 L 266 242.019531 L 266 226.019531 Z M 306 226.019531 C 301.582031 226.019531 298 229.601562 298 234.019531 C 298 238.441406 301.582031 242.019531 306 242.019531 C 310.417969 242.019531 314 238.441406 314 234.019531 C 314 229.601562 310.417969 226.019531 306 226.019531 Z M 186 258.019531 L 186 274.019531 L 170 274.019531 L 170 290.019531 L 186 290.019531 L 186 306.019531 L 202 306.019531 L 202 290.019531 L 218 290.019531 L 218 274.019531 L 202 274.019531 L 202 258.019531 Z M 282 258.019531 L 266 282.019531 L 298 282.019531 Z M 322 266.019531 C 317.585938 266.019531 314 269.605469 314 274.019531 C 314 278.4375 317.585938 282.019531 322 282.019531 C 326.414062 282.019531 330 278.4375 330 274.019531 C 330 269.605469 326.414062 266.019531 322 266.019531 Z M 302 298.019531 C 290.953125 298.019531 282 306.972656 282 318.019531 C 282 329.070312 290.953125 338.019531 302 338.019531 C 313.046875 338.019531 322 329.070312 322 318.019531 C 322 306.972656 313.046875 298.019531 302 298.019531 Z M 178 322.019531 C 175.113281 321.980469 172.429688 323.496094 170.976562 325.988281 C 169.523438 328.480469 169.523438 331.5625 170.976562 334.054688 C 172.429688 336.546875 175.113281 338.0625 178 338.019531 L 194 338.019531 C 196.886719 338.0625 199.570312 336.546875 201.023438 334.054688 C 202.476562 331.5625 202.476562 328.480469 201.023438 325.988281 C 199.570312 323.496094 196.886719 321.980469 194 322.019531 Z M 226 322.019531 C 223.113281 321.980469 220.429688 323.496094 218.976562 325.988281 C 217.523438 328.480469 217.523438 331.5625 218.976562 334.054688 C 220.429688 336.546875 223.113281 338.0625 226 338.019531 L 242 338.019531 C 244.886719 338.0625 247.570312 336.546875 249.023438 334.054688 C 250.476562 331.5625 250.476562 328.480469 249.023438 325.988281 C 247.570312 323.496094 244.886719 321.980469 242 322.019531 Z M 226 322.019531 "/>
</g>
</svg>
