<svg xmlns="http://www.w3.org/2000/svg"  viewBox="0 0 64 64" width="64px" height="64px">
<linearGradient id="sX_rwzo73yu5wbNiVa30ga" x1="32" x2="32" y1="25" y2="42" gradientUnits="userSpaceOnUse">
<stop offset="0" stop-color="#6dc7ff"/><stop offset="1" stop-color="#e6abff"/></linearGradient>
<path fill="url(#sX_rwzo73yu5wbNiVa30ga)" d="M49,33.5c0,4.694-3.134,8.5-7,8.5s-7-3.806-7-8.5s3.134-8.5,7-8.5S49,28.806,49,33.5z M22,25	c-3.866,0-7,3.806-7,8.5s3.134,8.5,7,8.5s7-3.806,7-8.5S25.866,25,22,25z"/>
<linearGradient id="sX_rwzo73yu5wbNiVa30gb" x1="32" x2="32" y1="8" y2="54" gradientUnits="userSpaceOnUse"><stop offset="0" stop-color="#1a6dff"/><stop offset="1" stop-color="#c822ff"/></linearGradient>
<path fill="url(#sX_rwzo73yu5wbNiVa30gb)" d="M52,16h-4.815l0.838-4.002C49.117,11.985,50,11.097,50,10c0-1.105-0.895-2-2-2s-2,0.895-2,2	
c0,0.675,0.337,1.269,0.849,1.631L44.844,16H17.156l-2.005-4.369C15.663,11.269,16,10.675,16,10c0-1.105-0.895-2-2-2s-2,0.895-2,2	
c0,1.097,0.883,1.985,1.977,1.998L14.815,16H12c-3.309,0-6,2.691-6,6v26c0,3.309,2.691,6,6,6h40c3.309,0,6-2.691,6-6V22	
C58,18.691,55.309,16,52,16z M56,48c0,2.206-1.794,4-4,4H12c-2.206,0-4-1.794-4-4V22c0-2.206,1.794-4,4-4h40c2.206,0,4,1.794,4,4V48	z M35,43.5c0,0.828-1.343,1.5-3,
1.5s-3-0.672-3-1.5s1.343-1.5,3-1.5S35,42.672,35,43.5z M43,36c0,1.105-0.895,2-2,2s-2-0.895-2-2	s0.895-2,2-2S43,34.895,43,36z M25,36c0,1.105-0.895,2-2,2s-2-0.895-2-2s0.895-2,2-2S25,34.895,25,36z"/></svg>