<svg fill="#000000" xmlns="http://www.w3.org/2000/svg"  viewBox="0 0 50 50" width="250px" height="250px"><path d="M 23.3125 2 C 22.738281 2.011719 22.183594 2.058594 21.65625 2.125 C 20.039063 2.34375 18.484375 2.859375 17.0625 3.53125 C 12.503906 5.917969 10.957031 10.253906 10.9375 10.3125 C 10.796875 10.726563 10.414063 11 10 11 C 9.894531 11 9.792969 10.972656 9.6875 10.9375 C 9.164063 10.757813 8.882813 10.210938 9.0625 9.6875 C 9.078125 9.644531 9.769531 7.710938 11.5 5.59375 C 10.652344 5.277344 9.554688 5 8.3125 5 C 4.683594 5 1 7.777344 1 13.09375 C 1 16.128906 3.160156 19.84375 3.25 20 C 3.289063 20.066406 3.324219 20.132813 3.375 20.1875 C 3.003906 21.132813 2.8125 22.203125 2.8125 23.40625 C 2.8125 27.554688 4.019531 30.390625 4.71875 31.65625 C 3.605469 32.363281 3 33.621094 3 35.3125 C 3 36.808594 3.476563 37.976563 4.4375 38.8125 C 5.589844 39.816406 7.15625 40.015625 8.15625 40.03125 C 8.6875 42.378906 11.039063 48 21.3125 48 C 32.136719 48 35.867188 41.003906 36.75 38.875 C 39.558594 38.28125 44 36.097656 44 31.1875 C 44 28.339844 42.726563 26.421875 41.25 25.28125 L 47.21875 21.75 C 47.394531 21.648438 47.539063 21.496094 47.625 21.3125 C 48.644531 20.367188 49.449219 18.457031 48.6875 17.0625 C 48.464844 16.613281 46.785156 13.644531 45.9375 12.96875 C 45.613281 12.753906 44.984375 12.53125 44.15625 12.53125 C 43.378906 12.53125 42.585938 12.730469 41.84375 13.15625 C 40.0625 14.300781 39.234375 16.464844 40 17.84375 C 40.214844 18.273438 41.558594 19.957031 42.34375 20.9375 C 42.617188 21.265625 42.9375 21.542969 43.3125 21.75 L 39.15625 24.1875 C 38.738281 24.0625 38.335938 24 38 24 C 35.269531 24 33.664063 24.960938 32.84375 25.6875 C 32.277344 25.15625 31.441406 23.988281 31.125 21.8125 C 33.542969 21.367188 38 20.203125 38 17.59375 C 38 16.742188 37.53125 16.066406 36.78125 15.5 C 33.585938 13.816406 27.886719 13.871094 22.125 14.96875 C 28.976563 15.4375 29 18.824219 29 20 C 29 20.289063 29.019531 20.542969 29.03125 20.8125 C 29.011719 20.914063 28.984375 21.046875 29 21.15625 C 29.007813 21.203125 29.050781 21.234375 29.0625 21.28125 C 29.4375 25.878906 31.691406 27.390625 32.34375 27.75 C 32.46875 27.859375 32.621094 27.933594 32.78125 27.96875 C 32.78125 27.96875 33.03125 28.03125 33.375 28.34375 C 33.71875 28.65625 34.09375 29.164063 34.09375 30.3125 C 34.09375 30.46875 33.898438 31.234375 33.28125 31.84375 C 32.664063 32.453125 31.671875 33 30 33 C 28.230469 33 26.871094 32.628906 26.03125 32.1875 C 25.9375 32.140625 25.890625 32.082031 25.8125 32.03125 C 25.785156 31.992188 25.753906 31.941406 25.71875 31.90625 C 25.597656 31.777344 25.46875 31.703125 25.3125 31.65625 C 25.085938 31.421875 25 31.238281 25 31.1875 C 25 30.167969 25.78125 29.90625 25.78125 29.90625 C 26.164063 29.808594 26.457031 29.496094 26.523438 29.105469 C 26.59375 28.714844 26.421875 28.320313 26.09375 28.101563 C 25.761719 27.882813 25.332031 27.878906 25 28.09375 C 25 28.09375 23.609375 28.753906 23.15625 30.25 C 20.921875 30.089844 19.5 29.707031 18.375 29.40625 C 17.523438 29.179688 16.800781 29 16 29 C 13.796875 29 12.824219 30.433594 12.15625 31.4375 C 11.988281 31.6875 11.941406 32.023438 12.03125 32.3125 C 12.121094 32.597656 12.347656 32.824219 12.625 32.9375 C 13.402344 33.25 13.964844 34.835938 14.5 36.375 C 15.476563 39.171875 16.8125 43 21 43 C 25.621094 43 26.664063 37.101563 26.90625 34.625 C 27.808594 34.859375 28.828125 35 30 35 C 32.128906 35 33.703125 34.25 34.6875 33.28125 C 35.671875 32.3125 36.09375 31.257813 36.09375 30.3125 C 36.09375 28.664063 35.425781 27.484375 34.71875 26.84375 C 34.707031 26.832031 34.699219 26.824219 34.6875 26.8125 C 35.324219 26.417969 36.359375 26 38 26 C 38.882813 26 42 27.234375 42 31.1875 C 42 36.039063 36.09375 36.964844 35.84375 37 C 35.457031 37.054688 35.140625 37.34375 35.03125 37.71875 C 34.929688 38.058594 32.46875 46 21.3125 46 C 10.402344 46 10.011719 39.25 10 38.96875 C 9.992188 38.683594 9.875 38.433594 9.65625 38.25 C 9.472656 38.09375 9.234375 38 9 38 C 8.953125 38 8.921875 37.992188 8.875 38 C 8.855469 38.003906 6.847656 38.265625 5.75 37.3125 C 5.238281 36.867188 5 36.21875 5 35.3125 C 5 34.324219 5.214844 33 7.1875 33 C 7.871094 33 8.46875 33.34375 8.46875 33.34375 C 8.9375 33.640625 9.550781 33.5 9.84375 33.03125 C 10.136719 32.5625 10 31.949219 9.53125 31.65625 C 9.425781 31.589844 8.4375 31 7.1875 31 C 7.011719 31 6.855469 31.015625 6.6875 31.03125 C 6.25 30.320313 4.8125 27.644531 4.8125 23.40625 C 4.8125 21.277344 5.710938 19.664063 7.09375 18.46875 C 7.175781 18.316406 7.277344 18.191406 7.4375 18.09375 C 7.648438 17.964844 7.902344 17.84375 8.125 17.71875 C 8.808594 17.277344 9.550781 16.910156 10.34375 16.59375 C 16.886719 13.597656 26.828125 11.351563 33.6875 12.46875 C 33.863281 11.800781 34 11.082031 34 10.3125 C 34 8.367188 33.230469 2.007813 23.3125 2 Z M 16.09375 19 C 13.492188 19 12.15625 21.5 12.15625 21.5 C 11.886719 21.800781 11.824219 22.234375 12 22.601563 C 12.171875 22.964844 12.550781 23.1875 12.953125 23.167969 C 13.359375 23.144531 13.710938 22.882813 13.84375 22.5 C 13.84375 22.5 14.894531 21 16.09375 21 C 17.328125 21 18.402344 21.773438 19.4375 22.84375 C 19.910156 23.332031 20.339844 23.878906 20.78125 24.375 C 19.457031 24.714844 18.46875 25.15625 18.46875 25.15625 C 18.136719 25.332031 17.929688 25.679688 17.933594 26.054688 C 17.9375 26.429688 18.152344 26.769531 18.492188 26.9375 C 18.828125 27.105469 19.230469 27.066406 19.53125 26.84375 C 19.53125 26.84375 20.878906 26 23 26 C 23.453125 25.992188 23.84375 25.683594 23.953125 25.242188 C 24.066406 24.804688 23.863281 24.34375 23.46875 24.125 C 23.039063 23.898438 22.039063 22.671875 20.875 21.46875 C 19.710938 20.265625 18.15625 19 16.09375 19 Z M 26.625 20.9375 C 25.8125 21.089844 25.390625 22.371094 25.65625 23.78125 C 25.921875 25.191406 26.78125 26.214844 27.59375 26.0625 C 28.40625 25.910156 28.859375 24.628906 28.59375 23.21875 C 28.328125 21.808594 27.4375 20.785156 26.625 20.9375 Z M 16 31 C 16.539063 31 17.101563 31.136719 17.875 31.34375 C 19.054688 31.65625 20.628906 32.082031 23.1875 32.25 L 23.28125 32.6875 C 22.113281 33.421875 21.195313 33.316406 19.875 33.15625 C 19.269531 33.082031 18.585938 33 17.8125 33 C 16.921875 33 16.09375 33.269531 15.53125 33.5 C 15.21875 32.824219 14.867188 32.203125 14.40625 31.75 C 14.8125 31.269531 15.25 31 16 31 Z"/></svg>