<?xml version="1.0" encoding="UTF-8"?>
<svg xmlns="http://www.w3.org/2000/svg" xmlns:xlink="http://www.w3.org/1999/xlink" viewBox="0 0 500 500" width="500px" height="500px">
<g id="surface1654933">
<path style=" stroke:none;fill-rule:nonzero;fill:rgb(96.078432%,0%,100%);fill-opacity:1;" d="M 250 500 C 111.929688 500 0 388.070312 0 250 C 0 111.929688 111.929688 0 250 0 C 388.070312 0 500 111.929688 500 250 C 500 388.070312 388.070312 500 250 500 Z M 250 500 "/>
<path style=" stroke:none;fill-rule:nonzero;fill:rgb(0%,93.725491%,100%);fill-opacity:1;" 
d="M 211.96875 66 C 175.59375 66 146 95.59375 146 131.96875 L 146 136.046875 C 146 171.757812 
174.542969 200.851562 210 201.90625 L 210 218 L 198 218 C 184.761719 218 173.699219 227.257812 
170.796875 239.625 C 141.894531 253.195312 125.21875 287.042969 125.65625 319.4375 C 114.34375 
323.039062 106 333.554688 106 346 C 105.960938 348.886719 107.476562 351.570312 109.96875 
353.023438 C 112.457031 354.476562 115.542969 354.476562 118.03125 353.023438 C 120.523438 
351.570312 122.039062 348.886719 122 346 C 122 339.273438 127.273438 334 134 334 C 140.726562 
334 146 339.273438 146 346 C 145.960938 348.886719 147.476562 351.570312 149.96875 353.023438 
C 152.457031 354.476562 155.542969 354.476562 158.03125 353.023438 C 160.523438 351.570312 
162.039062 348.886719 162 346 C 162 333.3125 153.339844 322.609375 141.6875 319.21875 C 
141.546875 295.082031 153.753906 269.207031 172.296875 257.078125 C 176.597656 267.019531 
186.496094 274 198 274 L 202 274 L 202 290 L 185.203125 290 C 181.226562 290 178 293.585938 
178 298 L 178 330 C 178 334.414062 181.226562 338 185.203125 338 L 194 338 L 194 399.640625 
C 184.363281 405.628906 178 415.8125 178 427.34375 C 178 431.023438 181.226562 434 185.203125 
434 L 242.796875 434 C 246.773438 434 250 431.023438 250 427.34375 C 250 415.8125 243.636719 
405.628906 234 399.640625 L 234 338 L 266 338 L 266 399.640625 C 256.363281 405.628906 250 415.8125 
250 427.34375 C 250 431.023438 253.226562 434 257.203125 434 L 314.796875 434 C 318.773438 434 322 
431.023438 322 427.34375 C 322 415.8125 315.636719 405.628906 306 399.640625 L 306 338 L 314.796875 
338 C 318.773438 338 322 334.414062 322 330 L 322 298 C 322 293.585938 318.773438 290 314.796875 290 L 
298 290 L 298 274 L 302 274 C 313.503906 274 323.402344 267.019531 327.703125 257.078125 C 346.246094 269.207031 
358.453125 295.082031 358.3125 319.21875 C 346.660156 322.609375 338 333.3125 338 346 C 337.960938 348.886719 
339.476562 351.570312 341.96875 353.023438 C 344.460938 354.476562 347.542969 354.476562 350.03125 353.023438 C 
352.523438 351.570312 354.039062 348.886719 354 346 C 354 339.273438 359.273438 334 366 334 C 372.726562 334 378 
339.273438 378 346 C 377.960938 348.886719 379.476562 351.570312 381.96875 353.023438 C 384.460938 354.476562 387.542969 
354.476562 390.03125 353.023438 C 392.523438 351.570312 394.039062 348.886719 394 346 C 394 333.554688 385.65625 323.039062 
374.34375 319.4375 C 374.78125 287.042969 358.105469 253.195312 329.203125 239.625 C 326.300781 227.257812 315.238281 218 
302 218 L 290 218 L 290 201.90625 C 325.457031 200.851562 354 171.742188 354 136.03125 L 354 131.953125 C 354 95.585938 
324.40625 66 288.03125 66 Z M 218 82 L 282 82 L 266 106 L 234 106 Z M 202 122 C 204.046875 122 206.09375 122.78125 207.65625 
124.34375 L 223.65625 140.34375 C 226.785156 143.472656 226.785156 148.527344 223.65625 151.65625 C 222.097656 153.214844 
220.046875 154 218 154 C 215.953125 154 213.902344 153.214844 212.34375 151.65625 L 202 141.3125 L 191.65625 151.65625 
C 188.527344 154.785156 183.472656 154.785156 180.34375 151.65625 C 177.214844 148.527344 177.214844 143.472656 180.34375 140.34375 L 
196.34375 124.34375 C 197.90625 122.78125 199.953125 122 202 122 Z M 298 122 C 300.046875 122 302.09375 122.78125 303.65625 124.34375 L 
319.65625 140.34375 C 322.785156 143.472656 322.785156 148.527344 319.65625 151.65625 C 318.097656 153.214844 316.046875 154 314 154 C 
311.953125 154 309.902344 153.214844 308.34375 151.65625 L 298 141.3125 L 287.65625 151.65625 C 284.527344 154.785156 279.472656 154.785156 276.34375 
151.65625 C 273.214844 148.527344 273.214844 143.472656 276.34375 140.34375 L 292.34375 124.34375 C 293.90625 122.78125 295.953125 122 298 122 Z M 226 194 L 
246.59375 208.28125 C 248.753906 209.289062 251.246094 209.289062 253.40625 208.28125 L 274 194 L 274 226 L 253.40625 211.71875 C 252.328125 211.214844 251.167969
 210.953125 250 210.953125 C 248.832031 210.953125 247.671875 211.214844 246.59375 211.71875 L 226 226 Z M 226 194 "/>
</g>
</svg>
