<?xml version="1.0" encoding="UTF-8"?>
<svg xmlns="http://www.w3.org/2000/svg" xmlns:xlink="http://www.w3.org/1999/xlink" viewBox="0 0 120 120" width="120px" height="120px">
<g id="surface2270101">
<path style=" stroke:none;fill-rule:nonzero;fill:rgb(90.588236%,0%,100%);fill-opacity:1;" d="M 101.710938 13.332031 C 100.953125 12.484375 99.867188 12 98.730469 12 L 21.269531 12 C 20.132812 12 19.046875 12.484375 18.289062 13.332031 C 17.527344 14.179688 17.167969 15.3125 17.292969 16.441406 L 26.101562 95.730469 C 26.277344 97.34375 27.414062 98.691406 28.976562 99.136719 L 58.894531 107.683594 C 59.257812 107.789062 59.628906 107.839844 59.996094 107.839844 C 60.363281 107.839844 60.734375 107.789062 61.097656 107.683594 L 91.015625 99.136719 C 92.574219 98.691406 93.710938 97.34375 93.890625 95.730469 L 102.703125 16.441406 C 102.832031 15.3125 102.472656 14.179688 101.710938 13.332031 Z M 82.515625 41.71875 L 46.796875 41.71875 L 47.644531 51.886719 L 81.65625 51.886719 L 79.105469 81.929688 L 60.011719 88 L 59.824219 87.941406 L 40.945312 81.921875 L 39.910156 69.679688 L 49.160156 69.679688 L 49.5625 74.4375 L 60.113281 76.761719 L 70.476562 74.433594 L 71.574219 61.578125 L 39.214844 61.578125 L 36.710938 32 L 83.347656 32 Z M 82.515625 41.71875 "/>
</g>
</svg>
